<?xml version="1.0" standalone="no"?>
<!DOCTYPE svg PUBLIC "-//W3C//DTD SVG 20010904//EN"
 "http://www.w3.org/TR/2001/REC-SVG-20010904/DTD/svg10.dtd">
<svg version="1.0" xmlns="http://www.w3.org/2000/svg"
 width="1681.000000pt" height="1634.000000pt" viewBox="0 0 1681.000000 1634.000000"
 preserveAspectRatio="xMidYMid meet">

<g transform="translate(0.000000,1634.000000) scale(0.100000,-0.100000)"
fill="#000000" stroke="none">
<path d="M43 16332 c-20 -6 301 -420 3184 -4107 1763 -2255 3208 -4105 3210
-4112 3 -6 -1429 -1833 -3182 -4060 l-3186 -4048 1907 -3 c1512 -2 1911 1
1930 10 12 7 175 213 361 458 433 570 392 516 2412 3083 943 1197 1717 2177
1722 2177 4 0 1021 -1289 2261 -2865 l2253 -2864 1900 0 c1045 0 1917 3 1938
7 l37 7 -1206 1510 c-3314 4149 -3344 4187 -4469 5615 -379 481 -712 905 -741
941 l-53 66 1351 1724 c2695 3441 4174 5327 4966 6334 l102 130 -1877 3
c-1033 2 -1905 0 -1939 -3 l-61 -6 -434 -582 c-239 -320 -502 -669 -584 -777
-322 -418 -3437 -4370 -3444 -4370 -12 0 -3936 4985 -4310 5475 -101 132 -190
246 -199 253 -13 9 -411 12 -1921 11 -1048 -1 -1916 -4 -1928 -7z"/>
</g>
</svg>
