<?xml version="1.0" encoding="UTF-8"?>
<!DOCTYPE svg PUBLIC "-//W3C//DTD SVG 1.1//EN" "http://www.w3.org/Graphics/SVG/1.1/DTD/svg11.dtd">
<svg xmlns="http://www.w3.org/2000/svg" version="1.1" width="1681px" height="1634px" style="shape-rendering:geometricPrecision; text-rendering:geometricPrecision; image-rendering:optimizeQuality; fill-rule:evenodd; clip-rule:evenodd" xmlns:xlink="http://www.w3.org/1999/xlink">
<g><path style="opacity:0.968" fill="#5a5c61" d="M -0.5,0.5 C -0.5,0.166667 -0.5,-0.166667 -0.5,-0.5C 1.5,-0.5 3.5,-0.5 5.5,-0.5C 219.483,272.145 433.816,544.478 648.5,816.5C 647.378,819.438 645.378,821.438 642.5,822.5C 428.638,548.099 214.305,274.099 -0.5,0.5 Z"/></g>
<g><path style="opacity:0.999" fill="#57585b" d="M 5.5,-0.5 C 133.5,-0.5 261.5,-0.5 389.5,-0.5C 403.501,17.6731 417.335,36.0064 431,54.5C 567.007,227.335 703.173,400.001 839.5,572.5C 952.322,429.539 1065.16,286.539 1178,143.5C 1214.05,95.6228 1249.88,47.6228 1285.5,-0.5C 1415.17,-0.5 1544.83,-0.5 1674.5,-0.5C 1460.73,272.72 1246.73,545.72 1032.5,818.5C 968.175,737.197 903.842,655.864 839.5,574.5C 775.779,655.21 712.112,735.876 648.5,816.5C 433.816,544.478 219.483,272.145 5.5,-0.5 Z"/></g>
<g><path style="opacity:0.997" fill="#e0261d" d="M 1032.5,818.5 C 1110.19,917.185 1187.86,1015.85 1265.5,1114.5C 1400.93,1287.68 1536.59,1460.68 1672.5,1633.5C 1544.83,1633.5 1417.17,1633.5 1289.5,1633.5C 1139.9,1442.56 989.898,1251.89 839.5,1061.5C 707.762,1227.9 576.428,1394.56 445.5,1561.5C 426.029,1585.1 407.029,1609.1 388.5,1633.5C 260.833,1633.5 133.167,1633.5 5.5,1633.5C 218.083,1363.32 430.416,1092.98 642.5,822.5C 645.378,821.438 647.378,819.438 648.5,816.5C 712.112,735.876 775.779,655.21 839.5,574.5C 903.842,655.864 968.175,737.197 1032.5,818.5 Z"/></g>
<g><path style="opacity:0.905" fill="#da3835" d="M 1265.5,1114.5 C 1403.83,1287.17 1542.17,1459.83 1680.5,1632.5C 1680.5,1632.83 1680.5,1633.17 1680.5,1633.5C 1677.83,1633.5 1675.17,1633.5 1672.5,1633.5C 1536.59,1460.68 1400.93,1287.68 1265.5,1114.5 Z"/></g>
<g><path style="opacity:0.808" fill="#d93733" d="M 445.5,1561.5 C 427.909,1585.76 409.909,1609.76 391.5,1633.5C 390.5,1633.5 389.5,1633.5 388.5,1633.5C 407.029,1609.1 426.029,1585.1 445.5,1561.5 Z"/></g>
</svg>
